<svg xmlns="http://www.w3.org/2000/svg" viewBox="0 0 100.47 88.6"><defs><style>.cls-1{fill:#fff;}</style></defs><title>dl_img_1</title><g id="Layer_2" data-name="Layer 2"><g id="Layer_1-2" data-name="Layer 1"><path class="cls-1" d="M69.14,75.94A18.54,18.54,0,0,1,90.62,57.51v-51A6.53,6.53,0,0,0,84.09,0H6.53A6.53,6.53,0,0,0,0,6.52V74.69a6.53,6.53,0,0,0,6.53,6.53H69.91A18.59,18.59,0,0,1,69.14,75.94ZM11.21,11.16H79.32V56.69H11.21Z"/><path class="cls-1" d="M87.81,63.27a12.67,12.67,0,1,0,12.67,12.67A12.68,12.68,0,0,0,87.81,63.27Zm-.07,21.42L79,76.82l2.68-3,4,3.65V66.79h4V77.5l4-3.65,2.68,3Z"/><path class="cls-1" d="M65.91,20.83a10.64,10.64,0,0,1-1.22,2.7c-.29.55-2.36,2.92-2.32,3.3.47,4.31-.6,10.65-7.51,17.76a20.87,20.87,0,0,1-15.44,6.57,29.12,29.12,0,0,1-9.88-1.84c-1-.38-6.49-2.92-4.05-4.36,1.51-.9,3.77-.28,5.47-.68.41-.1,3.84-1.55,3.93-1.48a23.75,23.75,0,0,1-7.41-8.95,17,17,0,0,1-1.53-7.46c.08-2.72.52-6.55,3-8.1a.4.4,0,0,1,.24-.08c.68.07,1.74,1.67,2.26,2.21a16.49,16.49,0,0,0,2.46,2.09,21.43,21.43,0,0,0,9.64,3.55,9.29,9.29,0,0,1,9.28-9.25,9.19,9.19,0,0,1,6.13,2.32c1.69-.18,7.52-1.56,7,1.67Z"/></g></g></svg>